<svg width="209" height="35" fill="none" xmlns="http://www.w3.org/2000/svg"><path fill-rule="evenodd" clip-rule="evenodd" d="M0 29V5h5v9.1h9.5V5h5v24h-5V18.1H5V29H0zM22.8 5H28v15c0 1.7.2 2.9.6 3.7.6 1.3 2 2 4 2s3.4-.7 4-2c.4-.8.6-2 .6-3.7V5h5.2v15c0 2.6-.4 4.6-1.2 6-1.5 2.7-4.4 4-8.6 4-4.2 0-7-1.3-8.6-4-.8-1.4-1.2-3.4-1.2-6V5zm26.6 24h-6l8-12.3L43.9 5h6l4.4 7.8L58.8 5h6l-7.5 11.5 8 12.4H59l-4.7-8.1-4.9 8.1z" fill="#323333"/><path d="M75.8 15.8v-2H79v-3.3h2v3.2h3.2v2H81V19h-2v-3.2h-3.2z" fill="#9198A2"/><path d="M154.6 8.8c0 1.3-1 2.3-2.3 2.3-1.3 0-2.4-1-2.4-2.3 0-1.3 1-2.3 2.4-2.3 1.3 0 2.3 1 2.3 2.3zm-9.6 4.6v.5s-1.1-1.4-3.5-1.4c-4 0-7 3-7 7s3 7 7 7c2.4 0 3.5-1.5 3.5-1.5v.6c0 .3.2.5.5.5h2.9V12.9h-3c-.2 0-.4.2-.4.5zm0 8.4c-.6.8-1.6 1.5-3 1.5-2.2 0-4-1.4-4-3.8s1.8-3.8 4-3.8c1.3 0 2.5.7 3 1.4v4.7zm5.5-9h3.5v13.3h-3.5V12.9zm51.6-.3c-2.4 0-3.5 1.4-3.5 1.4V6.6H195V26h3c.2 0 .4-.3.4-.5V25s1.2 1.4 3.5 1.4c4 0 7-3 7-7s-3-6.9-7-6.9zm-.6 10.7c-1.3 0-2.4-.6-3-1.4V17a4 4 0 0 1 3-1.4c2.3 0 4 1.4 4 3.7 0 2.4-1.7 3.8-4 3.8zm-8.2-5v7.9H190v-7.5c0-2.1-.7-3-2.7-3-1 0-2 .5-2.8 1.3V26H181V12.9h2.7c.3 0 .5.2.5.5v.5a5 5 0 0 1 3.7-1.4c1.5 0 2.7.5 3.7 1.3 1.3 1 1.7 2.2 1.7 4.5zm-20.7-5.7a4.5 4.5 0 0 0-3.5 1.4V6.6h-3.4V26h2.9c.3 0 .5-.3.5-.5V25s1.1 1.4 3.5 1.4c3.9 0 7-3 7-7s-3-6.9-7-6.9zm-.6 10.7c-1.3 0-2.3-.6-2.9-1.4V17a4 4 0 0 1 3-1.4c2.2 0 4 1.4 4 3.7 0 2.4-1.8 3.8-4 3.8zm-9.3-10.7c1 0 1.6.2 1.6.2v3.1s-2.9-1-4.7 1v9.3h-3.4V12.9h2.9c.3 0 .5.2.5.5v.5c.6-.7 2-1.4 3-1.4zM126.9 25l-.6-1.3-.8-1.8c-2.5-5.3-5.2-10.6-8-15.8v-.3l-1-1.6-1.2-2a5.9 5.9 0 0 0-4.6-2.1 6 6 0 0 0-4.6 2.1c-.5.6-1 1.3-1.3 2l-.8 1.6-.2.2L96 21.7l-.9 1.9-.5 1.2a7.7 7.7 0 0 0-.4 3.8 7.5 7.5 0 0 0 4.6 5.8 7.5 7.5 0 0 0 3.9.5c1.2-.1 2.4-.5 3.6-1.2a18 18 0 0 0 4.4-3.6c1.6 1.7 3 2.8 4.5 3.6a9.7 9.7 0 0 0 4.5 1.3c1 0 2-.2 3-.6 2.4-1 4.2-3.2 4.6-5.8.3-1.2.1-2.4-.3-3.7zm-16.2 1.8c-2-2.4-3.2-4.6-3.7-6.5-.1-.8-.2-1.5 0-2.2 0-.5.2-1 .5-1.4.7-1 1.8-1.6 3.2-1.6 1.3 0 2.5.6 3.1 1.6.3.4.5.9.6 1.4.1.7 0 1.4-.1 2.2-.4 1.8-1.7 4-3.6 6.5zm14.3 1.6a5.2 5.2 0 0 1-3.3 4.1c-.8.4-1.8.5-2.7.4-.9-.1-1.8-.4-2.7-1-1.3-.6-2.6-1.7-4.1-3.3 2.4-2.9 3.8-5.4 4.3-7.8.3-1 .3-2 .2-3-.1-.8-.5-1.6-1-2.3a6.1 6.1 0 0 0-5-2.5c-2.1 0-4 1-5 2.5-.6.7-1 1.5-1 2.4a7 7 0 0 0 .1 3c.6 2.3 2 4.9 4.4 7.7A16 16 0 0 1 105 32c-1 .5-1.9.8-2.8 1-1 0-1.9-.1-2.7-.4a5.2 5.2 0 0 1-3-6.9l.5-1 .9-1.8v-.1A380 380 0 0 1 105.9 7l.1-.2.9-1.6 1-1.6c.7-.8 1.7-1.3 2.8-1.3 1.2 0 2.2.5 3 1.3l1 1.6.8 1.6V7c2.8 5.2 5.5 10.5 8 15.7l.8 1.8.5 1.1c.2 1 .4 1.8.2 2.7z" fill="#FF5A5F"/></svg>
